<svg viewBox="0 0 900 2100" xmlns="http://www.w3.org/2000/svg" font-family="Segoe UI, Arial, sans-serif">
  <defs>
    <marker id="arrow" markerWidth="10" markerHeight="7" refX="9" refY="3.5" orient="auto">
      <polygon points="0 0, 10 3.5, 0 7" fill="#4A90D9"/>
    </marker>
    <marker id="arrow-red" markerWidth="10" markerHeight="7" refX="9" refY="3.5" orient="auto">
      <polygon points="0 0, 10 3.5, 0 7" fill="#E53935"/>
    </marker>
    <marker id="arrow-green" markerWidth="10" markerHeight="7" refX="9" refY="3.5" orient="auto">
      <polygon points="0 0, 10 3.5, 0 7" fill="#43A047"/>
    </marker>
    <filter id="shadow" x="-10%" y="-10%" width="120%" height="130%">
      <feDropShadow dx="2" dy="3" stdDeviation="3" flood-color="#00000033"/>
    </filter>
    <linearGradient id="headerGrad" x1="0" y1="0" x2="1" y2="0">
      <stop offset="0%" stop-color="#1A237E"/>
      <stop offset="100%" stop-color="#283593"/>
    </linearGradient>
    <linearGradient id="womenGrad" x1="0" y1="0" x2="0" y2="1">
      <stop offset="0%" stop-color="#AD1457"/>
      <stop offset="100%" stop-color="#E91E63"/>
    </linearGradient>
    <linearGradient id="childGrad" x1="0" y1="0" x2="0" y2="1">
      <stop offset="0%" stop-color="#1565C0"/>
      <stop offset="100%" stop-color="#1976D2"/>
    </linearGradient>
    <linearGradient id="riskGrad" x1="0" y1="0" x2="0" y2="1">
      <stop offset="0%" stop-color="#E65100"/>
      <stop offset="100%" stop-color="#F57C00"/>
    </linearGradient>
  </defs>

  <!-- Background -->
  <rect width="900" height="2100" fill="#F5F7FA"/>

  <!-- Title Banner -->
  <rect x="30" y="20" width="840" height="70" rx="14" fill="url(#headerGrad)" filter="url(#shadow)"/>
  <text x="450" y="48" text-anchor="middle" fill="white" font-size="22" font-weight="bold">🔱 Threenetra AI — System Flowchart</text>
  <text x="450" y="72" text-anchor="middle" fill="#90CAF9" font-size="13">Unified AI Safety Platform · Women Mode · Child Mode</text>

  <!-- ── APP LAUNCH ── -->
  <rect x="325" y="120" width="250" height="50" rx="25" fill="#1A237E" filter="url(#shadow)"/>
  <text x="450" y="151" text-anchor="middle" fill="white" font-size="14" font-weight="bold">📱 App Launch</text>

  <!-- Arrow down -->
  <line x1="450" y1="170" x2="450" y2="195" stroke="#4A90D9" stroke-width="2" marker-end="url(#arrow)"/>

  <!-- ONBOARDING / AUTH -->
  <rect x="300" y="195" width="300" height="55" rx="10" fill="#283593" filter="url(#shadow)"/>
  <text x="450" y="219" text-anchor="middle" fill="white" font-size="13" font-weight="bold">🔐 Onboarding / Auth</text>
  <text x="450" y="238" text-anchor="middle" fill="#B3C8F8" font-size="11">Supabase Auth · Anonymous fallback</text>

  <line x1="450" y1="250" x2="450" y2="275" stroke="#4A90D9" stroke-width="2" marker-end="url(#arrow)"/>

  <!-- PERMISSIONS -->
  <rect x="300" y="275" width="300" height="55" rx="10" fill="#37474F" filter="url(#shadow)"/>
  <text x="450" y="299" text-anchor="middle" fill="white" font-size="13" font-weight="bold">🛡️ Permission Manager</text>
  <text x="450" y="317" text-anchor="middle" fill="#CFD8DC" font-size="11">Location · Mic · SMS · Contacts</text>

  <line x1="450" y1="330" x2="450" y2="355" stroke="#4A90D9" stroke-width="2" marker-end="url(#arrow)"/>

  <!-- MODE SELECTION -->
  <rect x="290" y="355" width="320" height="55" rx="10" fill="#4527A0" filter="url(#shadow)"/>
  <text x="450" y="379" text-anchor="middle" fill="white" font-size="13" font-weight="bold">🧭 Mode Selection Screen</text>
  <text x="450" y="397" text-anchor="middle" fill="#CE93D8" font-size="11">Women Safety Mode · Child Safety Mode</text>

  <!-- Branch arrows -->
  <line x1="370" y1="410" x2="210" y2="450" stroke="#E91E63" stroke-width="2" marker-end="url(#arrow-red)"/>
  <line x1="530" y1="410" x2="690" y2="450" stroke="#1976D2" stroke-width="2" marker-end="url(#arrow)"/>

  <!-- ══ WOMEN MODE COLUMN (left) ══ -->
  <rect x="60" y="450" width="300" height="55" rx="10" fill="url(#womenGrad)" filter="url(#shadow)"/>
  <text x="210" y="474" text-anchor="middle" fill="white" font-size="13" font-weight="bold">👩 Women Safety Mode</text>
  <text x="210" y="492" text-anchor="middle" fill="#F8BBD9" font-size="11">Self-driven · Activate with 1 tap</text>

  <!-- Women → Monitoring -->
  <line x1="210" y1="505" x2="210" y2="530" stroke="#E91E63" stroke-width="2" marker-end="url(#arrow-red)"/>
  <rect x="60" y="530" width="300" height="75" rx="10" fill="#880E4F" filter="url(#shadow)"/>
  <text x="210" y="553" text-anchor="middle" fill="white" font-size="12" font-weight="bold">📡 Continuous Monitoring</text>
  <text x="210" y="571" text-anchor="middle" fill="#F8BBD9" font-size="10">GPS tracking · Motion sensors</text>
  <text x="210" y="587" text-anchor="middle" fill="#F8BBD9" font-size="10">Background service always-on</text>

  <!-- Women → Risk Engine -->
  <line x1="210" y1="605" x2="210" y2="628" stroke="#E91E63" stroke-width="2" marker-end="url(#arrow-red)"/>

  <!-- ══ CHILD MODE COLUMN (right) ══ -->
  <rect x="540" y="450" width="300" height="55" rx="10" fill="url(#childGrad)" filter="url(#shadow)"/>
  <text x="690" y="474" text-anchor="middle" fill="white" font-size="13" font-weight="bold">🧒 Child Safety Mode</text>
  <text x="690" y="492" text-anchor="middle" fill="#BBDEFB" font-size="11">Parent-controlled · Geo-fencing</text>

  <line x1="690" y1="505" x2="690" y2="530" stroke="#1976D2" stroke-width="2" marker-end="url(#arrow)"/>
  <rect x="540" y="530" width="300" height="75" rx="10" fill="#0D47A1" filter="url(#shadow)"/>
  <text x="690" y="553" text-anchor="middle" fill="white" font-size="12" font-weight="bold">📡 Live Location + Geo-fence</text>
  <text x="690" y="571" text-anchor="middle" fill="#BBDEFB" font-size="10">Safe zones · Inactivity detection</text>
  <text x="690" y="587" text-anchor="middle" fill="#BBDEFB" font-size="10">Unusual movement alerts</text>

  <line x1="690" y1="605" x2="690" y2="628" stroke="#1976D2" stroke-width="2" marker-end="url(#arrow)"/>

  <!-- ══ SHARED: RISK ENGINE ══ -->
  <!-- Connect both to risk engine -->
  <line x1="210" y1="628" x2="360" y2="658" stroke="#E91E63" stroke-width="2" marker-end="url(#arrow-red)"/>
  <line x1="690" y1="628" x2="540" y2="658" stroke="#1976D2" stroke-width="2" marker-end="url(#arrow)"/>

  <rect x="270" y="655" width="360" height="90" rx="12" fill="url(#riskGrad)" filter="url(#shadow)"/>
  <text x="450" y="680" text-anchor="middle" fill="white" font-size="14" font-weight="bold">⚡ Risk Engine (Rule-Based v1)</text>
  <text x="450" y="698" text-anchor="middle" fill="#FFE0B2" font-size="11">INPUT: GPS · Time · Motion · Geo-fence</text>
  <text x="450" y="714" text-anchor="middle" fill="#FFE0B2" font-size="11">LOGIC: night+speed → HIGH · isolated → MED</text>
  <text x="450" y="730" text-anchor="middle" fill="#FFE0B2" font-size="11">OUTPUT: LOW / MEDIUM / HIGH + Reason</text>

  <line x1="450" y1="745" x2="450" y2="775" stroke="#4A90D9" stroke-width="2" marker-end="url(#arrow)"/>

  <!-- RISK DECISION DIAMOND -->
  <polygon points="450,775 560,820 450,865 340,820" fill="#BF360C" filter="url(#shadow)"/>
  <text x="450" y="814" text-anchor="middle" fill="white" font-size="13" font-weight="bold">Risk Level?</text>
  <text x="450" y="830" text-anchor="middle" fill="#FFCCBC" font-size="11">Evaluate threshold</text>

  <!-- LOW branch -->
  <line x1="340" y1="820" x2="170" y2="820" stroke="#43A047" stroke-width="2" marker-end="url(#arrow-green)"/>
  <text x="255" y="812" text-anchor="middle" fill="#43A047" font-size="11" font-weight="bold">LOW</text>
  <rect x="60" y="798" width="110" height="44" rx="8" fill="#1B5E20"/>
  <text x="115" y="816" text-anchor="middle" fill="white" font-size="11" font-weight="bold">✅ Safe</text>
  <text x="115" y="833" text-anchor="middle" fill="#A5D6A7" font-size="10">Continue monitor</text>

  <!-- MEDIUM branch up -->
  <line x1="450" y1="865" x2="450" y2="895" stroke="#FDD835" stroke-width="2" marker-end="url(#arrow)"/>
  <text x="465" y="882" fill="#FDD835" font-size="11" font-weight="bold">MEDIUM</text>
  <rect x="310" y="895" width="280" height="44" rx="8" fill="#F57F17" filter="url(#shadow)"/>
  <text x="450" y="913" text-anchor="middle" fill="white" font-size="12" font-weight="bold">⚠️ Alert User / Parent</text>
  <text x="450" y="930" text-anchor="middle" fill="#FFF9C4" font-size="10">FCM push · In-app warning · Vibrate</text>

  <!-- HIGH branch -->
  <line x1="560" y1="820" x2="720" y2="820" stroke="#E53935" stroke-width="2" marker-end="url(#arrow-red)"/>
  <text x="640" y="812" text-anchor="middle" fill="#E53935" font-size="11" font-weight="bold">HIGH</text>
  <rect x="720" y="798" width="120" height="44" rx="8" fill="#B71C1C" filter="url(#shadow)"/>
  <text x="780" y="816" text-anchor="middle" fill="white" font-size="11" font-weight="bold">🚨 EMERGENCY</text>
  <text x="780" y="833" text-anchor="middle" fill="#FFCDD2" font-size="10">Auto trigger</text>

  <!-- HIGH → Emergency Engine -->
  <line x1="780" y1="842" x2="780" y2="960" stroke="#E53935" stroke-width="2"/>
  <line x1="780" y1="960" x2="560" y2="960" stroke="#E53935" stroke-width="2" marker-end="url(#arrow-red)"/>

  <!-- MEDIUM → also feeds Emergency if confirmed -->
  <line x1="450" y1="939" x2="450" y2="960" stroke="#F57F17" stroke-width="2"/>

  <!-- ══ EMERGENCY ENGINE ══ -->
  <rect x="270" y="960" width="360" height="105" rx="12" fill="#B71C1C" filter="url(#shadow)"/>
  <text x="450" y="985" text-anchor="middle" fill="white" font-size="14" font-weight="bold">🆘 Emergency Action Engine</text>
  <text x="450" y="1005" text-anchor="middle" fill="#FFCDD2" font-size="11">① Send SOS SMS + location link</text>
  <text x="450" y="1022" text-anchor="middle" fill="#FFCDD2" font-size="11">② Start audio recording (background)</text>
  <text x="450" y="1039" text-anchor="middle" fill="#FFCDD2" font-size="11">③ FCM push to trusted contacts</text>
  <text x="450" y="1056" text-anchor="middle" fill="#FFCDD2" font-size="11">④ Optional: call intent trigger</text>

  <line x1="450" y1="1065" x2="450" y2="1095" stroke="#4A90D9" stroke-width="2" marker-end="url(#arrow)"/>

  <!-- AUDIO RECORDING -->
  <rect x="290" y="1095" width="320" height="55" rx="10" fill="#4A148C" filter="url(#shadow)"/>
  <text x="450" y="1119" text-anchor="middle" fill="white" font-size="13" font-weight="bold">🎙️ Audio Recording Service</text>
  <text x="450" y="1137" text-anchor="middle" fill="#CE93D8" font-size="11">Save locally · Upload to Supabase Storage</text>

  <line x1="450" y1="1150" x2="450" y2="1175" stroke="#4A90D9" stroke-width="2" marker-end="url(#arrow)"/>

  <!-- ══ BACKEND / DATA LAYER ══ -->
  <rect x="200" y="1175" width="500" height="120" rx="12" fill="#1A237E" filter="url(#shadow)"/>
  <text x="450" y="1200" text-anchor="middle" fill="white" font-size="14" font-weight="bold">🗄️ Backend / Data Layer</text>
  <!-- sub boxes -->
  <rect x="215" y="1210" width="140" height="40" rx="6" fill="#283593"/>
  <text x="285" y="1226" text-anchor="middle" fill="#90CAF9" font-size="10" font-weight="bold">Supabase Auth</text>
  <text x="285" y="1242" text-anchor="middle" fill="#90CAF9" font-size="10">Users · Sessions</text>

  <rect x="365" y="1210" width="140" height="40" rx="6" fill="#283593"/>
  <text x="435" y="1226" text-anchor="middle" fill="#90CAF9" font-size="10" font-weight="bold">Supabase DB</text>
  <text x="435" y="1242" text-anchor="middle" fill="#90CAF9" font-size="10">Location · Alerts · Contacts</text>

  <rect x="515" y="1210" width="170" height="40" rx="6" fill="#283593"/>
  <text x="600" y="1226" text-anchor="middle" fill="#90CAF9" font-size="10" font-weight="bold">Supabase Realtime</text>
  <text x="600" y="1242" text-anchor="middle" fill="#90CAF9" font-size="10">Live location push</text>

  <text x="450" y="1280" text-anchor="middle" fill="#7986CB" font-size="10">Compatibility layer: Railway MySQL · OpenStreetMap tiles (free)</text>

  <line x1="450" y1="1295" x2="450" y2="1325" stroke="#4A90D9" stroke-width="2" marker-end="url(#arrow)"/>

  <!-- ══ HACKATHON DIFFERENTIATORS ══ -->
  <rect x="150" y="1325" width="600" height="200" rx="14" fill="#004D40" filter="url(#shadow)"/>
  <text x="450" y="1352" text-anchor="middle" fill="#80CBC4" font-size="14" font-weight="bold">🏆 Hackathon-Winning Differentiators (NEW)</text>

  <!-- 4 feature boxes -->
  <rect x="165" y="1362" width="270" height="50" rx="8" fill="#00695C"/>
  <text x="300" y="1382" text-anchor="middle" fill="white" font-size="11" font-weight="bold">🤫 Silent Shake-to-SOS</text>
  <text x="300" y="1400" text-anchor="middle" fill="#B2DFDB" font-size="10">Shake phone → SOS without unlocking</text>

  <rect x="455" y="1362" width="270" height="50" rx="8" fill="#00695C"/>
  <text x="590" y="1382" text-anchor="middle" fill="white" font-size="11" font-weight="bold">🗺️ Crowd Heatmap (OSM)</text>
  <text x="590" y="1400" text-anchor="middle" fill="#B2DFDB" font-size="10">Anonymous safety ratings by community</text>

  <rect x="165" y="1422" width="270" height="50" rx="8" fill="#00695C"/>
  <text x="300" y="1442" text-anchor="middle" fill="white" font-size="11" font-weight="bold">🤖 AI Safety Tip Engine</text>
  <text x="300" y="1460" text-anchor="middle" fill="#B2DFDB" font-size="10">Context-aware tips via Claude API (free)</text>

  <rect x="455" y="1422" width="270" height="50" rx="8" fill="#00695C"/>
  <text x="590" y="1442" text-anchor="middle" fill="white" font-size="11" font-weight="bold">📵 Offline SOS Mode</text>
  <text x="590" y="1460" text-anchor="middle" fill="#B2DFDB" font-size="10">SMS alerts work without internet</text>

  <rect x="165" y="1482" width="560" height="35" rx="8" fill="#00695C"/>
  <text x="450" y="1502" text-anchor="middle" fill="white" font-size="11" font-weight="bold">🧠 TFLite-Ready Risk Engine slot · Fake call screen · Trusted contact widget</text>

  <line x1="450" y1="1525" x2="450" y2="1555" stroke="#4A90D9" stroke-width="2" marker-end="url(#arrow)"/>

  <!-- NOTIFICATIONS -->
  <rect x="270" y="1555" width="360" height="60" rx="10" fill="#1565C0" filter="url(#shadow)"/>
  <text x="450" y="1578" text-anchor="middle" fill="white" font-size="13" font-weight="bold">🔔 Notification Layer</text>
  <text x="450" y="1596" text-anchor="middle" fill="#BBDEFB" font-size="11">FCM (primary) · Local notifications fallback · SMS</text>

  <line x1="450" y1="1615" x2="450" y2="1645" stroke="#4A90D9" stroke-width="2" marker-end="url(#arrow)"/>

  <!-- PARENT DASHBOARD -->
  <rect x="270" y="1645" width="360" height="70" rx="10" fill="#00838F" filter="url(#shadow)"/>
  <text x="450" y="1668" text-anchor="middle" fill="white" font-size="13" font-weight="bold">👨‍👩‍👧 Parent Dashboard (Child Mode)</text>
  <text x="450" y="1686" text-anchor="middle" fill="#B2EBF2" font-size="11">Live map (OSM) · Geo-fence manager</text>
  <text x="450" y="1703" text-anchor="middle" fill="#B2EBF2" font-size="11">Alert history · Child activity feed</text>

  <line x1="450" y1="1715" x2="450" y2="1745" stroke="#4A90D9" stroke-width="2" marker-end="url(#arrow)"/>

  <!-- TESTING -->
  <rect x="270" y="1745" width="360" height="80" rx="10" fill="#37474F" filter="url(#shadow)"/>
  <text x="450" y="1768" text-anchor="middle" fill="white" font-size="13" font-weight="bold">🧪 Testing &amp; QA</text>
  <text x="450" y="1786" text-anchor="middle" fill="#CFD8DC" font-size="11">Trigger HIGH risk manually</text>
  <text x="450" y="1802" text-anchor="middle" fill="#CFD8DC" font-size="11">Audio record verify · Geo-fence breach test</text>
  <text x="450" y="1818" text-anchor="middle" fill="#CFD8DC" font-size="11">Real APK → Android device deploy</text>

  <line x1="450" y1="1825" x2="450" y2="1855" stroke="#43A047" stroke-width="2" marker-end="url(#arrow-green)"/>

  <!-- DEPLOYMENT -->
  <rect x="300" y="1855" width="300" height="55" rx="10" fill="#1B5E20" filter="url(#shadow)"/>
  <text x="450" y="1879" text-anchor="middle" fill="white" font-size="13" font-weight="bold">🚀 Production Deploy</text>
  <text x="450" y="1897" text-anchor="middle" fill="#A5D6A7" font-size="11">Android APK · Supabase free tier · OSM</text>

  <!-- FEEDBACK LOOP -->
  <path d="M 300 1882 Q 100 1882 100 820 Q 100 628 270 700" stroke="#4A90D9" stroke-width="1.5" stroke-dasharray="6,4" fill="none" marker-end="url(#arrow)"/>
  <text x="80" y="1260" text-anchor="middle" fill="#4A90D9" font-size="10" transform="rotate(-90 80 1260)">Continuous feedback loop</text>

  <!-- Legend -->
  <rect x="60" y="1970" width="780" height="110" rx="10" fill="#ECEFF1" stroke="#CFD8DC" stroke-width="1"/>
  <text x="450" y="1993" text-anchor="middle" fill="#37474F" font-size="12" font-weight="bold">Legend / Free Services Used</text>
  <circle cx="85" cy="2015" r="7" fill="#E91E63"/> <text x="100" y="2019" fill="#37474F" font-size="11">Women Mode</text>
  <circle cx="200" cy="2015" r="7" fill="#1976D2"/> <text x="215" y="2019" fill="#37474F" font-size="11">Child Mode</text>
  <circle cx="310" cy="2015" r="7" fill="#F57C00"/> <text x="325" y="2019" fill="#37474F" font-size="11">Risk Engine</text>
  <circle cx="420" cy="2015" r="7" fill="#B71C1C"/> <text x="435" y="2019" fill="#37474F" font-size="11">Emergency</text>
  <circle cx="530" cy="2015" r="7" fill="#004D40"/> <text x="545" y="2019" fill="#37474F" font-size="11">Hackathon Features</text>
  <text x="75" y="2045" fill="#546E7A" font-size="11">📦 Auth: Supabase free tier</text>
  <text x="75" y="2062" fill="#546E7A" font-size="11">🗺️ Maps: OpenStreetMap (100% free)</text>
  <text x="75" y="2079" fill="#546E7A" font-size="11">🔔 Push: Firebase FCM (free)</text>
  <text x="350" y="2045" fill="#546E7A" font-size="11">💾 Storage: Supabase Storage (free tier)</text>
  <text x="350" y="2062" fill="#546E7A" font-size="11">🤖 AI tips: Anthropic API / Gemini free tier</text>
  <text x="350" y="2079" fill="#546E7A" font-size="11">📵 SMS: native Android (no cost)</text>
</svg>
